<mxfile host="app.diagrams.net" modified="2024-04-13T14:56:31.710Z" agent="Mozilla/5.0 (Windows NT 10.0; Win64; x64) AppleWebKit/537.36 (KHTML, like Gecko) Chrome/123.0.0.0 Safari/537.36" etag="gVfzuYH5u0MYltYnjIZI" version="24.2.2" type="google">
  <diagram name="Strona-1" id="ZMuBya0hHFWjPArA7sXA">
    <mxGraphModel grid="1" page="1" gridSize="10" guides="1" tooltips="1" connect="1" arrows="1" fold="1" pageScale="1" pageWidth="827" pageHeight="1169" math="0" shadow="0">
      <root>
        <mxCell id="0" />
        <mxCell id="1" parent="0" />
        <mxCell id="SbZ_kAbmuimCgGdz2jKS-1" value="&lt;div&gt;&lt;span style=&quot;font-weight: 400;&quot;&gt;«interface»&lt;/span&gt;&lt;br&gt;&lt;/div&gt;IPlayground" style="swimlane;fontStyle=1;align=center;verticalAlign=top;childLayout=stackLayout;horizontal=1;startSize=40;horizontalStack=0;resizeParent=1;resizeParentMax=0;resizeLast=0;collapsible=1;marginBottom=0;whiteSpace=wrap;html=1;" vertex="1" parent="1">
          <mxGeometry x="624" y="30" width="246" height="204" as="geometry" />
        </mxCell>
        <mxCell id="SbZ_kAbmuimCgGdz2jKS-31" value="+ Construction: string" style="text;strokeColor=none;fillColor=none;align=left;verticalAlign=top;spacingLeft=4;spacingRight=4;overflow=hidden;rotatable=0;points=[[0,0.5],[1,0.5]];portConstraint=eastwest;whiteSpace=wrap;html=1;" vertex="1" parent="SbZ_kAbmuimCgGdz2jKS-1">
          <mxGeometry y="40" width="246" height="26" as="geometry" />
        </mxCell>
        <mxCell id="SbZ_kAbmuimCgGdz2jKS-32" value="+ Area: double" style="text;strokeColor=none;fillColor=none;align=left;verticalAlign=top;spacingLeft=4;spacingRight=4;overflow=hidden;rotatable=0;points=[[0,0.5],[1,0.5]];portConstraint=eastwest;whiteSpace=wrap;html=1;" vertex="1" parent="SbZ_kAbmuimCgGdz2jKS-1">
          <mxGeometry y="66" width="246" height="26" as="geometry" />
        </mxCell>
        <mxCell id="SbZ_kAbmuimCgGdz2jKS-2" value="+ SafetyLevel: int" style="text;strokeColor=none;fillColor=none;align=left;verticalAlign=top;spacingLeft=4;spacingRight=4;overflow=hidden;rotatable=0;points=[[0,0.5],[1,0.5]];portConstraint=eastwest;whiteSpace=wrap;html=1;" vertex="1" parent="SbZ_kAbmuimCgGdz2jKS-1">
          <mxGeometry y="92" width="246" height="26" as="geometry" />
        </mxCell>
        <mxCell id="SbZ_kAbmuimCgGdz2jKS-3" value="" style="line;strokeWidth=1;fillColor=none;align=left;verticalAlign=middle;spacingTop=-1;spacingLeft=3;spacingRight=3;rotatable=0;labelPosition=right;points=[];portConstraint=eastwest;strokeColor=inherit;" vertex="1" parent="SbZ_kAbmuimCgGdz2jKS-1">
          <mxGeometry y="118" width="246" height="8" as="geometry" />
        </mxCell>
        <mxCell id="SbZ_kAbmuimCgGdz2jKS-4" value="+ CheckSafety(): bool" style="text;strokeColor=none;fillColor=none;align=left;verticalAlign=top;spacingLeft=4;spacingRight=4;overflow=hidden;rotatable=0;points=[[0,0.5],[1,0.5]];portConstraint=eastwest;whiteSpace=wrap;html=1;" vertex="1" parent="SbZ_kAbmuimCgGdz2jKS-1">
          <mxGeometry y="126" width="246" height="26" as="geometry" />
        </mxCell>
        <mxCell id="pf9TmkokT2PoUwE13yY_-4" value="+ SetConstruction(contruction: string): void" style="text;strokeColor=none;fillColor=none;align=left;verticalAlign=top;spacingLeft=4;spacingRight=4;overflow=hidden;rotatable=0;points=[[0,0.5],[1,0.5]];portConstraint=eastwest;whiteSpace=wrap;html=1;" vertex="1" parent="SbZ_kAbmuimCgGdz2jKS-1">
          <mxGeometry y="152" width="246" height="26" as="geometry" />
        </mxCell>
        <mxCell id="pf9TmkokT2PoUwE13yY_-3" value="+ SetArea(area: double): void" style="text;strokeColor=none;fillColor=none;align=left;verticalAlign=top;spacingLeft=4;spacingRight=4;overflow=hidden;rotatable=0;points=[[0,0.5],[1,0.5]];portConstraint=eastwest;whiteSpace=wrap;html=1;" vertex="1" parent="SbZ_kAbmuimCgGdz2jKS-1">
          <mxGeometry y="178" width="246" height="26" as="geometry" />
        </mxCell>
        <mxCell id="SbZ_kAbmuimCgGdz2jKS-6" value="&lt;i&gt;BabyZone&lt;/i&gt;" style="swimlane;fontStyle=1;align=center;verticalAlign=top;childLayout=stackLayout;horizontal=1;startSize=26;horizontalStack=0;resizeParent=1;resizeParentMax=0;resizeLast=0;collapsible=1;marginBottom=0;whiteSpace=wrap;html=1;" vertex="1" parent="1">
          <mxGeometry x="224" y="110" width="190" height="90" as="geometry" />
        </mxCell>
        <mxCell id="SbZ_kAbmuimCgGdz2jKS-7" value="# SecurityMethods: string" style="text;strokeColor=none;fillColor=none;align=left;verticalAlign=top;spacingLeft=4;spacingRight=4;overflow=hidden;rotatable=0;points=[[0,0.5],[1,0.5]];portConstraint=eastwest;whiteSpace=wrap;html=1;" vertex="1" parent="SbZ_kAbmuimCgGdz2jKS-6">
          <mxGeometry y="26" width="190" height="26" as="geometry" />
        </mxCell>
        <mxCell id="ftyxgRMTcgvUekDEnt5G-4" value="" style="line;strokeWidth=1;fillColor=none;align=left;verticalAlign=middle;spacingTop=-1;spacingLeft=3;spacingRight=3;rotatable=0;labelPosition=right;points=[];portConstraint=eastwest;strokeColor=inherit;" vertex="1" parent="SbZ_kAbmuimCgGdz2jKS-6">
          <mxGeometry y="52" width="190" height="8" as="geometry" />
        </mxCell>
        <mxCell id="ftyxgRMTcgvUekDEnt5G-3" value="+ BabyZoneDescription(): string" style="text;strokeColor=none;fillColor=none;align=left;verticalAlign=top;spacingLeft=4;spacingRight=4;overflow=hidden;rotatable=0;points=[[0,0.5],[1,0.5]];portConstraint=eastwest;whiteSpace=wrap;html=1;" vertex="1" parent="SbZ_kAbmuimCgGdz2jKS-6">
          <mxGeometry y="60" width="190" height="30" as="geometry" />
        </mxCell>
        <mxCell id="SbZ_kAbmuimCgGdz2jKS-10" value="&lt;i&gt;TeenageZone&lt;/i&gt;" style="swimlane;fontStyle=1;align=center;verticalAlign=top;childLayout=stackLayout;horizontal=1;startSize=26;horizontalStack=0;resizeParent=1;resizeParentMax=0;resizeLast=0;collapsible=1;marginBottom=0;whiteSpace=wrap;html=1;" vertex="1" parent="1">
          <mxGeometry x="1050" y="87" width="210" height="90" as="geometry" />
        </mxCell>
        <mxCell id="SbZ_kAbmuimCgGdz2jKS-11" value="+ Insctructiors: List&amp;lt;Instructor&amp;gt;" style="text;strokeColor=none;fillColor=none;align=left;verticalAlign=top;spacingLeft=4;spacingRight=4;overflow=hidden;rotatable=0;points=[[0,0.5],[1,0.5]];portConstraint=eastwest;whiteSpace=wrap;html=1;" vertex="1" parent="SbZ_kAbmuimCgGdz2jKS-10">
          <mxGeometry y="26" width="210" height="26" as="geometry" />
        </mxCell>
        <mxCell id="SbZ_kAbmuimCgGdz2jKS-12" value="" style="line;strokeWidth=1;fillColor=none;align=left;verticalAlign=middle;spacingTop=-1;spacingLeft=3;spacingRight=3;rotatable=0;labelPosition=right;points=[];portConstraint=eastwest;strokeColor=inherit;" vertex="1" parent="SbZ_kAbmuimCgGdz2jKS-10">
          <mxGeometry y="52" width="210" height="8" as="geometry" />
        </mxCell>
        <mxCell id="SbZ_kAbmuimCgGdz2jKS-13" value="+ TeenageZoneDescription(): string" style="text;strokeColor=none;fillColor=none;align=left;verticalAlign=top;spacingLeft=4;spacingRight=4;overflow=hidden;rotatable=0;points=[[0,0.5],[1,0.5]];portConstraint=eastwest;whiteSpace=wrap;html=1;" vertex="1" parent="SbZ_kAbmuimCgGdz2jKS-10">
          <mxGeometry y="60" width="210" height="30" as="geometry" />
        </mxCell>
        <mxCell id="SbZ_kAbmuimCgGdz2jKS-14" value="BallPlayground" style="swimlane;fontStyle=1;align=center;verticalAlign=top;childLayout=stackLayout;horizontal=1;startSize=26;horizontalStack=0;resizeParent=1;resizeParentMax=0;resizeLast=0;collapsible=1;marginBottom=0;whiteSpace=wrap;html=1;" vertex="1" parent="1">
          <mxGeometry x="80" y="300" width="200" height="154" as="geometry" />
        </mxCell>
        <mxCell id="SbZ_kAbmuimCgGdz2jKS-15" value="# PoolCapacity: double" style="text;strokeColor=none;fillColor=none;align=left;verticalAlign=top;spacingLeft=4;spacingRight=4;overflow=hidden;rotatable=0;points=[[0,0.5],[1,0.5]];portConstraint=eastwest;whiteSpace=wrap;html=1;" vertex="1" parent="SbZ_kAbmuimCgGdz2jKS-14">
          <mxGeometry y="26" width="200" height="26" as="geometry" />
        </mxCell>
        <mxCell id="THdGppPnP6r5s8W3XFfn-3" value="# BallsMaterial: string" style="text;strokeColor=none;fillColor=none;align=left;verticalAlign=top;spacingLeft=4;spacingRight=4;overflow=hidden;rotatable=0;points=[[0,0.5],[1,0.5]];portConstraint=eastwest;whiteSpace=wrap;html=1;" vertex="1" parent="SbZ_kAbmuimCgGdz2jKS-14">
          <mxGeometry y="52" width="200" height="26" as="geometry" />
        </mxCell>
        <mxCell id="SbZ_kAbmuimCgGdz2jKS-16" value="" style="line;strokeWidth=1;fillColor=none;align=left;verticalAlign=middle;spacingTop=-1;spacingLeft=3;spacingRight=3;rotatable=0;labelPosition=right;points=[];portConstraint=eastwest;strokeColor=inherit;" vertex="1" parent="SbZ_kAbmuimCgGdz2jKS-14">
          <mxGeometry y="78" width="200" height="8" as="geometry" />
        </mxCell>
        <mxCell id="SbZ_kAbmuimCgGdz2jKS-17" value="+ Ball&lt;span style=&quot;background-color: initial;&quot;&gt;Description(): string&lt;/span&gt;" style="text;strokeColor=none;fillColor=none;align=left;verticalAlign=top;spacingLeft=4;spacingRight=4;overflow=hidden;rotatable=0;points=[[0,0.5],[1,0.5]];portConstraint=eastwest;whiteSpace=wrap;html=1;" vertex="1" parent="SbZ_kAbmuimCgGdz2jKS-14">
          <mxGeometry y="86" width="200" height="24" as="geometry" />
        </mxCell>
        <mxCell id="THdGppPnP6r5s8W3XFfn-1" value="+ BallsMaxPossible(): int" style="text;strokeColor=none;fillColor=none;align=left;verticalAlign=top;spacingLeft=4;spacingRight=4;overflow=hidden;rotatable=0;points=[[0,0.5],[1,0.5]];portConstraint=eastwest;whiteSpace=wrap;html=1;" vertex="1" parent="SbZ_kAbmuimCgGdz2jKS-14">
          <mxGeometry y="110" width="200" height="44" as="geometry" />
        </mxCell>
        <mxCell id="SbZ_kAbmuimCgGdz2jKS-18" value="InflatablePlayground" style="swimlane;fontStyle=1;align=center;verticalAlign=top;childLayout=stackLayout;horizontal=1;startSize=26;horizontalStack=0;resizeParent=1;resizeParentMax=0;resizeLast=0;collapsible=1;marginBottom=0;whiteSpace=wrap;html=1;" vertex="1" parent="1">
          <mxGeometry x="320" y="300" width="230" height="140" as="geometry">
            <mxRectangle x="320" y="300" width="150" height="30" as="alternateBounds" />
          </mxGeometry>
        </mxCell>
        <mxCell id="CaSeJ4gd43bD19MG-zS_-8" value="# AvailableInflatables: List&amp;lt;IInflatable&amp;gt;" style="text;strokeColor=none;fillColor=none;align=left;verticalAlign=top;spacingLeft=4;spacingRight=4;overflow=hidden;rotatable=0;points=[[0,0.5],[1,0.5]];portConstraint=eastwest;whiteSpace=wrap;html=1;" vertex="1" parent="SbZ_kAbmuimCgGdz2jKS-18">
          <mxGeometry y="26" width="230" height="26" as="geometry" />
        </mxCell>
        <mxCell id="SbZ_kAbmuimCgGdz2jKS-20" value="" style="line;strokeWidth=1;fillColor=none;align=left;verticalAlign=middle;spacingTop=-1;spacingLeft=3;spacingRight=3;rotatable=0;labelPosition=right;points=[];portConstraint=eastwest;strokeColor=inherit;" vertex="1" parent="SbZ_kAbmuimCgGdz2jKS-18">
          <mxGeometry y="52" width="230" height="8" as="geometry" />
        </mxCell>
        <mxCell id="S-1xgYZWDScL7PKl0GZi-3" value="+ InflatablesDescription(): string" style="text;strokeColor=none;fillColor=none;align=left;verticalAlign=top;spacingLeft=4;spacingRight=4;overflow=hidden;rotatable=0;points=[[0,0.5],[1,0.5]];portConstraint=eastwest;whiteSpace=wrap;html=1;" vertex="1" parent="SbZ_kAbmuimCgGdz2jKS-18">
          <mxGeometry y="60" width="230" height="24" as="geometry" />
        </mxCell>
        <mxCell id="CaSeJ4gd43bD19MG-zS_-9" value="+ AddInflatable(element:IInflatable): void" style="text;strokeColor=none;fillColor=none;align=left;verticalAlign=top;spacingLeft=4;spacingRight=4;overflow=hidden;rotatable=0;points=[[0,0.5],[1,0.5]];portConstraint=eastwest;whiteSpace=wrap;html=1;" vertex="1" parent="SbZ_kAbmuimCgGdz2jKS-18">
          <mxGeometry y="84" width="230" height="24" as="geometry" />
        </mxCell>
        <mxCell id="SbZ_kAbmuimCgGdz2jKS-21" value="+ InflateAll(): void" style="text;strokeColor=none;fillColor=none;align=left;verticalAlign=top;spacingLeft=4;spacingRight=4;overflow=hidden;rotatable=0;points=[[0,0.5],[1,0.5]];portConstraint=eastwest;whiteSpace=wrap;html=1;" vertex="1" parent="SbZ_kAbmuimCgGdz2jKS-18">
          <mxGeometry y="108" width="230" height="32" as="geometry" />
        </mxCell>
        <mxCell id="SbZ_kAbmuimCgGdz2jKS-22" value="SkatePark" style="swimlane;fontStyle=1;align=center;verticalAlign=top;childLayout=stackLayout;horizontal=1;startSize=26;horizontalStack=0;resizeParent=1;resizeParentMax=0;resizeLast=0;collapsible=1;marginBottom=0;whiteSpace=wrap;html=1;" vertex="1" parent="1">
          <mxGeometry x="840" y="270" width="270" height="164" as="geometry" />
        </mxCell>
        <mxCell id="SbZ_kAbmuimCgGdz2jKS-23" value="# AvaibleObstacles: List&amp;lt;IObstacles&amp;gt;" style="text;strokeColor=none;fillColor=none;align=left;verticalAlign=top;spacingLeft=4;spacingRight=4;overflow=hidden;rotatable=0;points=[[0,0.5],[1,0.5]];portConstraint=eastwest;whiteSpace=wrap;html=1;" vertex="1" parent="SbZ_kAbmuimCgGdz2jKS-22">
          <mxGeometry y="26" width="270" height="26" as="geometry" />
        </mxCell>
        <mxCell id="SbZ_kAbmuimCgGdz2jKS-24" value="" style="line;strokeWidth=1;fillColor=none;align=left;verticalAlign=middle;spacingTop=-1;spacingLeft=3;spacingRight=3;rotatable=0;labelPosition=right;points=[];portConstraint=eastwest;strokeColor=inherit;" vertex="1" parent="SbZ_kAbmuimCgGdz2jKS-22">
          <mxGeometry y="52" width="270" height="8" as="geometry" />
        </mxCell>
        <mxCell id="CaSeJ4gd43bD19MG-zS_-105" value="+ CheckRouteDifficulty(List&amp;lt;IObstacles&amp;gt;): string" style="text;strokeColor=none;fillColor=none;align=left;verticalAlign=top;spacingLeft=4;spacingRight=4;overflow=hidden;rotatable=0;points=[[0,0.5],[1,0.5]];portConstraint=eastwest;whiteSpace=wrap;html=1;" vertex="1" parent="SbZ_kAbmuimCgGdz2jKS-22">
          <mxGeometry y="60" width="270" height="26" as="geometry" />
        </mxCell>
        <mxCell id="CaSeJ4gd43bD19MG-zS_-131" value="+ AddObstacle(IObstacles,): void" style="text;strokeColor=none;fillColor=none;align=left;verticalAlign=top;spacingLeft=4;spacingRight=4;overflow=hidden;rotatable=0;points=[[0,0.5],[1,0.5]];portConstraint=eastwest;whiteSpace=wrap;html=1;" vertex="1" parent="SbZ_kAbmuimCgGdz2jKS-22">
          <mxGeometry y="86" width="270" height="26" as="geometry" />
        </mxCell>
        <mxCell id="CaSeJ4gd43bD19MG-zS_-132" value="+ RemoveObstacle(IObstacles): void" style="text;strokeColor=none;fillColor=none;align=left;verticalAlign=top;spacingLeft=4;spacingRight=4;overflow=hidden;rotatable=0;points=[[0,0.5],[1,0.5]];portConstraint=eastwest;whiteSpace=wrap;html=1;" vertex="1" parent="SbZ_kAbmuimCgGdz2jKS-22">
          <mxGeometry y="112" width="270" height="26" as="geometry" />
        </mxCell>
        <mxCell id="CaSeJ4gd43bD19MG-zS_-130" value="+ CheckAllRevisionsCurrent(): void" style="text;strokeColor=none;fillColor=none;align=left;verticalAlign=top;spacingLeft=4;spacingRight=4;overflow=hidden;rotatable=0;points=[[0,0.5],[1,0.5]];portConstraint=eastwest;whiteSpace=wrap;html=1;" vertex="1" parent="SbZ_kAbmuimCgGdz2jKS-22">
          <mxGeometry y="138" width="270" height="26" as="geometry" />
        </mxCell>
        <mxCell id="SbZ_kAbmuimCgGdz2jKS-26" value="RopePark" style="swimlane;fontStyle=1;align=center;verticalAlign=top;childLayout=stackLayout;horizontal=1;startSize=26;horizontalStack=0;resizeParent=1;resizeParentMax=0;resizeLast=0;collapsible=1;marginBottom=0;whiteSpace=wrap;html=1;" vertex="1" parent="1">
          <mxGeometry x="1160" y="270" width="250" height="112" as="geometry" />
        </mxCell>
        <mxCell id="SbZ_kAbmuimCgGdz2jKS-27" value="+ Routes: List&amp;lt;Route&amp;gt;" style="text;strokeColor=none;fillColor=none;align=left;verticalAlign=top;spacingLeft=4;spacingRight=4;overflow=hidden;rotatable=0;points=[[0,0.5],[1,0.5]];portConstraint=eastwest;whiteSpace=wrap;html=1;" vertex="1" parent="SbZ_kAbmuimCgGdz2jKS-26">
          <mxGeometry y="26" width="250" height="26" as="geometry" />
        </mxCell>
        <mxCell id="CaSeJ4gd43bD19MG-zS_-95" value="+ Equipment: List&amp;lt;Equipment&amp;gt;" style="text;strokeColor=none;fillColor=none;align=left;verticalAlign=top;spacingLeft=4;spacingRight=4;overflow=hidden;rotatable=0;points=[[0,0.5],[1,0.5]];portConstraint=eastwest;whiteSpace=wrap;html=1;" vertex="1" parent="SbZ_kAbmuimCgGdz2jKS-26">
          <mxGeometry y="52" width="250" height="26" as="geometry" />
        </mxCell>
        <mxCell id="SbZ_kAbmuimCgGdz2jKS-28" value="" style="line;strokeWidth=1;fillColor=none;align=left;verticalAlign=middle;spacingTop=-1;spacingLeft=3;spacingRight=3;rotatable=0;labelPosition=right;points=[];portConstraint=eastwest;strokeColor=inherit;" vertex="1" parent="SbZ_kAbmuimCgGdz2jKS-26">
          <mxGeometry y="78" width="250" height="8" as="geometry" />
        </mxCell>
        <mxCell id="S-1xgYZWDScL7PKl0GZi-2" value="+ RentEquipment(Equipment): void" style="text;strokeColor=none;fillColor=none;align=left;verticalAlign=top;spacingLeft=4;spacingRight=4;overflow=hidden;rotatable=0;points=[[0,0.5],[1,0.5]];portConstraint=eastwest;whiteSpace=wrap;html=1;" vertex="1" parent="SbZ_kAbmuimCgGdz2jKS-26">
          <mxGeometry y="86" width="250" height="26" as="geometry" />
        </mxCell>
        <mxCell id="SbZ_kAbmuimCgGdz2jKS-33" value="" style="endArrow=block;endSize=16;endFill=0;html=1;rounded=0;exitX=0.5;exitY=0;exitDx=0;exitDy=0;strokeColor=default;edgeStyle=orthogonalEdgeStyle;" edge="1" parent="1" source="SbZ_kAbmuimCgGdz2jKS-14" target="SbZ_kAbmuimCgGdz2jKS-6">
          <mxGeometry width="160" relative="1" as="geometry">
            <mxPoint x="460" y="270" as="sourcePoint" />
            <mxPoint x="615" y="272" as="targetPoint" />
            <Array as="points">
              <mxPoint x="180" y="260" />
              <mxPoint x="310" y="260" />
            </Array>
          </mxGeometry>
        </mxCell>
        <mxCell id="ftyxgRMTcgvUekDEnt5G-2" value="" style="endArrow=block;endSize=16;endFill=0;html=1;rounded=0;exitX=0.5;exitY=0;exitDx=0;exitDy=0;curved=0;strokeColor=none;jumpStyle=none;" edge="1" parent="1" source="SbZ_kAbmuimCgGdz2jKS-6" target="SbZ_kAbmuimCgGdz2jKS-1">
          <mxGeometry width="160" relative="1" as="geometry">
            <mxPoint x="400" y="50" as="sourcePoint" />
            <mxPoint x="560" y="50" as="targetPoint" />
          </mxGeometry>
        </mxCell>
        <mxCell id="ftyxgRMTcgvUekDEnt5G-5" value="" style="endArrow=block;endSize=16;endFill=0;html=1;rounded=0;edgeStyle=orthogonalEdgeStyle;dashed=1;" edge="1" parent="1" source="SbZ_kAbmuimCgGdz2jKS-10" target="SbZ_kAbmuimCgGdz2jKS-1">
          <mxGeometry width="160" relative="1" as="geometry">
            <mxPoint x="1070" y="70" as="sourcePoint" />
            <mxPoint x="1230" y="70" as="targetPoint" />
          </mxGeometry>
        </mxCell>
        <mxCell id="ftyxgRMTcgvUekDEnt5G-6" value="" style="endArrow=block;endSize=16;endFill=0;html=1;rounded=0;edgeStyle=orthogonalEdgeStyle;dashed=1;" edge="1" parent="1" source="SbZ_kAbmuimCgGdz2jKS-6" target="SbZ_kAbmuimCgGdz2jKS-1">
          <mxGeometry width="160" relative="1" as="geometry">
            <mxPoint x="450" y="100" as="sourcePoint" />
            <mxPoint x="570" y="100" as="targetPoint" />
            <Array as="points">
              <mxPoint x="470" y="132" />
            </Array>
          </mxGeometry>
        </mxCell>
        <mxCell id="SiN9N2vbYouL0cYe11oj-1" value="&lt;div&gt;&lt;div&gt;&lt;span style=&quot;font-weight: 400;&quot;&gt;«interface»&lt;/span&gt;&lt;br&gt;&lt;/div&gt;&lt;span style=&quot;background-color: initial;&quot;&gt;IInflatable&lt;/span&gt;&lt;br&gt;&lt;/div&gt;&lt;div&gt;&lt;span style=&quot;background-color: initial;&quot;&gt;&lt;br&gt;&lt;/span&gt;&lt;/div&gt;&lt;div&gt;&lt;br&gt;&lt;/div&gt;" style="swimlane;fontStyle=1;align=center;verticalAlign=top;childLayout=stackLayout;horizontal=1;startSize=40;horizontalStack=0;resizeParent=1;resizeParentMax=0;resizeLast=0;collapsible=1;marginBottom=0;whiteSpace=wrap;html=1;" vertex="1" parent="1">
          <mxGeometry x="355" y="505" width="160" height="224" as="geometry" />
        </mxCell>
        <mxCell id="CaSeJ4gd43bD19MG-zS_-2" value="- color: string" style="text;strokeColor=none;fillColor=none;align=left;verticalAlign=top;spacingLeft=4;spacingRight=4;overflow=hidden;rotatable=0;points=[[0,0.5],[1,0.5]];portConstraint=eastwest;whiteSpace=wrap;html=1;" vertex="1" parent="SiN9N2vbYouL0cYe11oj-1">
          <mxGeometry y="40" width="160" height="26" as="geometry" />
        </mxCell>
        <mxCell id="CaSeJ4gd43bD19MG-zS_-1" value="- size: int" style="text;strokeColor=none;fillColor=none;align=left;verticalAlign=top;spacingLeft=4;spacingRight=4;overflow=hidden;rotatable=0;points=[[0,0.5],[1,0.5]];portConstraint=eastwest;whiteSpace=wrap;html=1;" vertex="1" parent="SiN9N2vbYouL0cYe11oj-1">
          <mxGeometry y="66" width="160" height="22" as="geometry" />
        </mxCell>
        <mxCell id="aterxO59ibY9FlO3kTlR-1" value="- volume: int" style="text;strokeColor=none;fillColor=none;align=left;verticalAlign=top;spacingLeft=4;spacingRight=4;overflow=hidden;rotatable=0;points=[[0,0.5],[1,0.5]];portConstraint=eastwest;whiteSpace=wrap;html=1;" vertex="1" parent="SiN9N2vbYouL0cYe11oj-1">
          <mxGeometry y="88" width="160" height="22" as="geometry" />
        </mxCell>
        <mxCell id="pf9TmkokT2PoUwE13yY_-5" value="# InflationTime: int" style="text;strokeColor=none;fillColor=none;align=left;verticalAlign=top;spacingLeft=4;spacingRight=4;overflow=hidden;rotatable=0;points=[[0,0.5],[1,0.5]];portConstraint=eastwest;whiteSpace=wrap;html=1;" vertex="1" parent="SiN9N2vbYouL0cYe11oj-1">
          <mxGeometry y="110" width="160" height="26" as="geometry" />
        </mxCell>
        <mxCell id="SiN9N2vbYouL0cYe11oj-4" value="" style="line;strokeWidth=1;fillColor=none;align=left;verticalAlign=middle;spacingTop=-1;spacingLeft=3;spacingRight=3;rotatable=0;labelPosition=right;points=[];portConstraint=eastwest;strokeColor=inherit;" vertex="1" parent="SiN9N2vbYouL0cYe11oj-1">
          <mxGeometry y="136" width="160" height="8" as="geometry" />
        </mxCell>
        <mxCell id="SiN9N2vbYouL0cYe11oj-5" value="+ GetDecription(): string" style="text;strokeColor=none;fillColor=none;align=left;verticalAlign=top;spacingLeft=4;spacingRight=4;overflow=hidden;rotatable=0;points=[[0,0.5],[1,0.5]];portConstraint=eastwest;whiteSpace=wrap;html=1;" vertex="1" parent="SiN9N2vbYouL0cYe11oj-1">
          <mxGeometry y="144" width="160" height="26" as="geometry" />
        </mxCell>
        <mxCell id="aterxO59ibY9FlO3kTlR-2" value="+ GetVolume(): int" style="text;strokeColor=none;fillColor=none;align=left;verticalAlign=top;spacingLeft=4;spacingRight=4;overflow=hidden;rotatable=0;points=[[0,0.5],[1,0.5]];portConstraint=eastwest;whiteSpace=wrap;html=1;" vertex="1" parent="SiN9N2vbYouL0cYe11oj-1">
          <mxGeometry y="170" width="160" height="26" as="geometry" />
        </mxCell>
        <mxCell id="DbjGVKpHYJdUAsFHqH6q-1" value="+ Inflate(): void" style="text;strokeColor=none;fillColor=none;align=left;verticalAlign=top;spacingLeft=4;spacingRight=4;overflow=hidden;rotatable=0;points=[[0,0.5],[1,0.5]];portConstraint=eastwest;whiteSpace=wrap;html=1;" vertex="1" parent="SiN9N2vbYouL0cYe11oj-1">
          <mxGeometry y="196" width="160" height="28" as="geometry" />
        </mxCell>
        <mxCell id="CaSeJ4gd43bD19MG-zS_-4" value="1...*" style="endArrow=none;html=1;endSize=12;startArrow=diamondThin;startSize=14;startFill=0;edgeStyle=orthogonalEdgeStyle;rounded=0;endFill=0;" edge="1" parent="1" source="SbZ_kAbmuimCgGdz2jKS-18" target="SiN9N2vbYouL0cYe11oj-1">
          <mxGeometry relative="1" as="geometry">
            <mxPoint x="688.9000000000001" y="459.99799999999993" as="sourcePoint" />
            <mxPoint x="680" y="556.4" as="targetPoint" />
            <Array as="points" />
          </mxGeometry>
        </mxCell>
        <mxCell id="CaSeJ4gd43bD19MG-zS_-10" value="Slide" style="swimlane;fontStyle=1;align=center;verticalAlign=top;childLayout=stackLayout;horizontal=1;startSize=26;horizontalStack=0;resizeParent=1;resizeParentMax=0;resizeLast=0;collapsible=1;marginBottom=0;whiteSpace=wrap;html=1;" vertex="1" parent="1">
          <mxGeometry x="600" y="464" width="160" height="86" as="geometry" />
        </mxCell>
        <mxCell id="CaSeJ4gd43bD19MG-zS_-11" value="- lenght: int" style="text;strokeColor=none;fillColor=none;align=left;verticalAlign=top;spacingLeft=4;spacingRight=4;overflow=hidden;rotatable=0;points=[[0,0.5],[1,0.5]];portConstraint=eastwest;whiteSpace=wrap;html=1;" vertex="1" parent="CaSeJ4gd43bD19MG-zS_-10">
          <mxGeometry y="26" width="160" height="26" as="geometry" />
        </mxCell>
        <mxCell id="CaSeJ4gd43bD19MG-zS_-12" value="" style="line;strokeWidth=1;fillColor=none;align=left;verticalAlign=middle;spacingTop=-1;spacingLeft=3;spacingRight=3;rotatable=0;labelPosition=right;points=[];portConstraint=eastwest;strokeColor=inherit;" vertex="1" parent="CaSeJ4gd43bD19MG-zS_-10">
          <mxGeometry y="52" width="160" height="8" as="geometry" />
        </mxCell>
        <mxCell id="CaSeJ4gd43bD19MG-zS_-13" value="+ getLenght(): int" style="text;strokeColor=none;fillColor=none;align=left;verticalAlign=top;spacingLeft=4;spacingRight=4;overflow=hidden;rotatable=0;points=[[0,0.5],[1,0.5]];portConstraint=eastwest;whiteSpace=wrap;html=1;" vertex="1" parent="CaSeJ4gd43bD19MG-zS_-10">
          <mxGeometry y="60" width="160" height="26" as="geometry" />
        </mxCell>
        <mxCell id="CaSeJ4gd43bD19MG-zS_-14" value="Castle" style="swimlane;fontStyle=1;align=center;verticalAlign=top;childLayout=stackLayout;horizontal=1;startSize=26;horizontalStack=0;resizeParent=1;resizeParentMax=0;resizeLast=0;collapsible=1;marginBottom=0;whiteSpace=wrap;html=1;" vertex="1" parent="1">
          <mxGeometry x="600" y="592" width="160" height="52" as="geometry" />
        </mxCell>
        <mxCell id="CaSeJ4gd43bD19MG-zS_-15" value="- theme: string" style="text;strokeColor=none;fillColor=none;align=left;verticalAlign=top;spacingLeft=4;spacingRight=4;overflow=hidden;rotatable=0;points=[[0,0.5],[1,0.5]];portConstraint=eastwest;whiteSpace=wrap;html=1;" vertex="1" parent="CaSeJ4gd43bD19MG-zS_-14">
          <mxGeometry y="26" width="160" height="26" as="geometry" />
        </mxCell>
        <mxCell id="CaSeJ4gd43bD19MG-zS_-18" value="" style="endArrow=block;dashed=1;endFill=0;endSize=12;html=1;rounded=0;edgeStyle=orthogonalEdgeStyle;" edge="1" parent="1" source="CaSeJ4gd43bD19MG-zS_-14" target="SiN9N2vbYouL0cYe11oj-1">
          <mxGeometry width="160" relative="1" as="geometry">
            <mxPoint x="440" y="640" as="sourcePoint" />
            <mxPoint x="600" y="640" as="targetPoint" />
          </mxGeometry>
        </mxCell>
        <mxCell id="CaSeJ4gd43bD19MG-zS_-19" value="" style="endArrow=block;dashed=1;endFill=0;endSize=12;html=1;rounded=0;edgeStyle=orthogonalEdgeStyle;" edge="1" parent="1" source="CaSeJ4gd43bD19MG-zS_-10" target="SiN9N2vbYouL0cYe11oj-1">
          <mxGeometry width="160" relative="1" as="geometry">
            <mxPoint x="834" y="700" as="sourcePoint" />
            <mxPoint x="935" y="620" as="targetPoint" />
          </mxGeometry>
        </mxCell>
        <mxCell id="CaSeJ4gd43bD19MG-zS_-20" value="Ramp" style="swimlane;fontStyle=1;align=center;verticalAlign=top;childLayout=stackLayout;horizontal=1;startSize=26;horizontalStack=0;resizeParent=1;resizeParentMax=0;resizeLast=0;collapsible=1;marginBottom=0;whiteSpace=wrap;html=1;" vertex="1" parent="1">
          <mxGeometry x="920" y="880" width="160" height="52" as="geometry" />
        </mxCell>
        <mxCell id="CaSeJ4gd43bD19MG-zS_-24" value="+ degrees: int" style="text;strokeColor=none;fillColor=none;align=left;verticalAlign=top;spacingLeft=4;spacingRight=4;overflow=hidden;rotatable=0;points=[[0,0.5],[1,0.5]];portConstraint=eastwest;whiteSpace=wrap;html=1;" vertex="1" parent="CaSeJ4gd43bD19MG-zS_-20">
          <mxGeometry y="26" width="160" height="26" as="geometry" />
        </mxCell>
        <mxCell id="CaSeJ4gd43bD19MG-zS_-25" value="Bump" style="swimlane;fontStyle=1;align=center;verticalAlign=top;childLayout=stackLayout;horizontal=1;startSize=26;horizontalStack=0;resizeParent=1;resizeParentMax=0;resizeLast=0;collapsible=1;marginBottom=0;whiteSpace=wrap;html=1;" vertex="1" parent="1">
          <mxGeometry x="1150" y="788" width="160" height="52" as="geometry" />
        </mxCell>
        <mxCell id="CaSeJ4gd43bD19MG-zS_-26" value="+ height: int" style="text;strokeColor=none;fillColor=none;align=left;verticalAlign=top;spacingLeft=4;spacingRight=4;overflow=hidden;rotatable=0;points=[[0,0.5],[1,0.5]];portConstraint=eastwest;whiteSpace=wrap;html=1;" vertex="1" parent="CaSeJ4gd43bD19MG-zS_-25">
          <mxGeometry y="26" width="160" height="26" as="geometry" />
        </mxCell>
        <mxCell id="CaSeJ4gd43bD19MG-zS_-45" value="BumpsSet" style="swimlane;fontStyle=1;align=center;verticalAlign=top;childLayout=stackLayout;horizontal=1;startSize=26;horizontalStack=0;resizeParent=1;resizeParentMax=0;resizeLast=0;collapsible=1;marginBottom=0;whiteSpace=wrap;html=1;" vertex="1" parent="1">
          <mxGeometry x="920" y="662" width="225" height="112" as="geometry" />
        </mxCell>
        <mxCell id="CaSeJ4gd43bD19MG-zS_-46" value="+ Bumps: List&amp;lt;Bump&amp;gt;" style="text;strokeColor=none;fillColor=none;align=left;verticalAlign=top;spacingLeft=4;spacingRight=4;overflow=hidden;rotatable=0;points=[[0,0.5],[1,0.5]];portConstraint=eastwest;whiteSpace=wrap;html=1;" vertex="1" parent="CaSeJ4gd43bD19MG-zS_-45">
          <mxGeometry y="26" width="225" height="26" as="geometry" />
        </mxCell>
        <mxCell id="CaSeJ4gd43bD19MG-zS_-48" value="" style="line;strokeWidth=1;fillColor=none;align=left;verticalAlign=middle;spacingTop=-1;spacingLeft=3;spacingRight=3;rotatable=0;labelPosition=right;points=[];portConstraint=eastwest;strokeColor=inherit;" vertex="1" parent="CaSeJ4gd43bD19MG-zS_-45">
          <mxGeometry y="52" width="225" height="8" as="geometry" />
        </mxCell>
        <mxCell id="CaSeJ4gd43bD19MG-zS_-49" value="+ BumpsNumber(numberOfBumps:int)" style="text;strokeColor=none;fillColor=none;align=left;verticalAlign=top;spacingLeft=4;spacingRight=4;overflow=hidden;rotatable=0;points=[[0,0.5],[1,0.5]];portConstraint=eastwest;whiteSpace=wrap;html=1;" vertex="1" parent="CaSeJ4gd43bD19MG-zS_-45">
          <mxGeometry y="60" width="225" height="26" as="geometry" />
        </mxCell>
        <mxCell id="CaSeJ4gd43bD19MG-zS_-129" value="+ GetMaxHeight() : void" style="text;strokeColor=none;fillColor=none;align=left;verticalAlign=top;spacingLeft=4;spacingRight=4;overflow=hidden;rotatable=0;points=[[0,0.5],[1,0.5]];portConstraint=eastwest;whiteSpace=wrap;html=1;" vertex="1" parent="CaSeJ4gd43bD19MG-zS_-45">
          <mxGeometry y="86" width="225" height="26" as="geometry" />
        </mxCell>
        <mxCell id="CaSeJ4gd43bD19MG-zS_-50" value="Handrail" style="swimlane;fontStyle=1;align=center;verticalAlign=top;childLayout=stackLayout;horizontal=1;startSize=26;horizontalStack=0;resizeParent=1;resizeParentMax=0;resizeLast=0;collapsible=1;marginBottom=0;whiteSpace=wrap;html=1;" vertex="1" parent="1">
          <mxGeometry x="920" y="800" width="160" height="52" as="geometry" />
        </mxCell>
        <mxCell id="CaSeJ4gd43bD19MG-zS_-51" value="+ lenght: int" style="text;strokeColor=none;fillColor=none;align=left;verticalAlign=top;spacingLeft=4;spacingRight=4;overflow=hidden;rotatable=0;points=[[0,0.5],[1,0.5]];portConstraint=eastwest;whiteSpace=wrap;html=1;" vertex="1" parent="CaSeJ4gd43bD19MG-zS_-50">
          <mxGeometry y="26" width="160" height="26" as="geometry" />
        </mxCell>
        <mxCell id="CaSeJ4gd43bD19MG-zS_-56" value="2...*" style="endArrow=none;html=1;endSize=12;startArrow=diamondThin;startSize=14;startFill=0;edgeStyle=orthogonalEdgeStyle;rounded=0;endFill=0;" edge="1" parent="1" source="CaSeJ4gd43bD19MG-zS_-45" target="CaSeJ4gd43bD19MG-zS_-25">
          <mxGeometry relative="1" as="geometry">
            <mxPoint x="925" y="642" as="sourcePoint" />
            <mxPoint x="925" y="770" as="targetPoint" />
            <Array as="points">
              <mxPoint x="1165" y="724" />
            </Array>
          </mxGeometry>
        </mxCell>
        <mxCell id="CaSeJ4gd43bD19MG-zS_-59" value="&lt;div&gt;&lt;div&gt;&lt;span style=&quot;font-weight: 400;&quot;&gt;«interface»&lt;/span&gt;&lt;br&gt;&lt;/div&gt;&lt;span style=&quot;background-color: initial;&quot;&gt;IObstacle&lt;/span&gt;&lt;br&gt;&lt;/div&gt;&lt;div&gt;&lt;span style=&quot;background-color: initial;&quot;&gt;&lt;br&gt;&lt;/span&gt;&lt;/div&gt;&lt;div&gt;&lt;br&gt;&lt;/div&gt;" style="swimlane;fontStyle=1;align=center;verticalAlign=top;childLayout=stackLayout;horizontal=1;startSize=40;horizontalStack=0;resizeParent=1;resizeParentMax=0;resizeLast=0;collapsible=1;marginBottom=0;whiteSpace=wrap;html=1;" vertex="1" parent="1">
          <mxGeometry x="872.5" y="472" width="205" height="178" as="geometry" />
        </mxCell>
        <mxCell id="CaSeJ4gd43bD19MG-zS_-60" value="- size: int" style="text;strokeColor=none;fillColor=none;align=left;verticalAlign=top;spacingLeft=4;spacingRight=4;overflow=hidden;rotatable=0;points=[[0,0.5],[1,0.5]];portConstraint=eastwest;whiteSpace=wrap;html=1;" vertex="1" parent="CaSeJ4gd43bD19MG-zS_-59">
          <mxGeometry y="40" width="205" height="26" as="geometry" />
        </mxCell>
        <mxCell id="CaSeJ4gd43bD19MG-zS_-98" value="- dificultyLevel: int" style="text;strokeColor=none;fillColor=none;align=left;verticalAlign=top;spacingLeft=4;spacingRight=4;overflow=hidden;rotatable=0;points=[[0,0.5],[1,0.5]];portConstraint=eastwest;whiteSpace=wrap;html=1;" vertex="1" parent="CaSeJ4gd43bD19MG-zS_-59">
          <mxGeometry y="66" width="205" height="26" as="geometry" />
        </mxCell>
        <mxCell id="CaSeJ4gd43bD19MG-zS_-128" value="- height: int" style="text;strokeColor=none;fillColor=none;align=left;verticalAlign=top;spacingLeft=4;spacingRight=4;overflow=hidden;rotatable=0;points=[[0,0.5],[1,0.5]];portConstraint=eastwest;whiteSpace=wrap;html=1;" vertex="1" parent="CaSeJ4gd43bD19MG-zS_-59">
          <mxGeometry y="92" width="205" height="26" as="geometry" />
        </mxCell>
        <mxCell id="CaSeJ4gd43bD19MG-zS_-97" value="- LastRevision: Date" style="text;strokeColor=none;fillColor=none;align=left;verticalAlign=top;spacingLeft=4;spacingRight=4;overflow=hidden;rotatable=0;points=[[0,0.5],[1,0.5]];portConstraint=eastwest;whiteSpace=wrap;html=1;" vertex="1" parent="CaSeJ4gd43bD19MG-zS_-59">
          <mxGeometry y="118" width="205" height="26" as="geometry" />
        </mxCell>
        <mxCell id="CaSeJ4gd43bD19MG-zS_-63" value="" style="line;strokeWidth=1;fillColor=none;align=left;verticalAlign=middle;spacingTop=-1;spacingLeft=3;spacingRight=3;rotatable=0;labelPosition=right;points=[];portConstraint=eastwest;strokeColor=inherit;" vertex="1" parent="CaSeJ4gd43bD19MG-zS_-59">
          <mxGeometry y="144" width="205" height="8" as="geometry" />
        </mxCell>
        <mxCell id="CaSeJ4gd43bD19MG-zS_-64" value="+ CheckRevisionCurrent(): bool" style="text;strokeColor=none;fillColor=none;align=left;verticalAlign=top;spacingLeft=4;spacingRight=4;overflow=hidden;rotatable=0;points=[[0,0.5],[1,0.5]];portConstraint=eastwest;whiteSpace=wrap;html=1;" vertex="1" parent="CaSeJ4gd43bD19MG-zS_-59">
          <mxGeometry y="152" width="205" height="26" as="geometry" />
        </mxCell>
        <mxCell id="CaSeJ4gd43bD19MG-zS_-65" value="" style="endArrow=block;dashed=1;endFill=0;endSize=12;html=1;rounded=0;edgeStyle=orthogonalEdgeStyle;" edge="1" parent="1" source="CaSeJ4gd43bD19MG-zS_-20" target="CaSeJ4gd43bD19MG-zS_-59">
          <mxGeometry width="160" relative="1" as="geometry">
            <mxPoint x="1105" y="831.0285714285715" as="sourcePoint" />
            <mxPoint x="1145" y="602" as="targetPoint" />
            <Array as="points">
              <mxPoint x="850" y="900" />
              <mxPoint x="850" y="540" />
            </Array>
          </mxGeometry>
        </mxCell>
        <mxCell id="CaSeJ4gd43bD19MG-zS_-67" value="" style="endArrow=block;dashed=1;endFill=0;endSize=12;html=1;rounded=0;edgeStyle=orthogonalEdgeStyle;" edge="1" parent="1" source="CaSeJ4gd43bD19MG-zS_-45" target="CaSeJ4gd43bD19MG-zS_-59">
          <mxGeometry width="160" relative="1" as="geometry">
            <mxPoint x="1170" y="740" as="sourcePoint" />
            <mxPoint x="1030" y="614" as="targetPoint" />
            <Array as="points">
              <mxPoint x="850" y="721" />
              <mxPoint x="850" y="540" />
            </Array>
          </mxGeometry>
        </mxCell>
        <mxCell id="CaSeJ4gd43bD19MG-zS_-68" value="" style="endArrow=diamondThin;endFill=0;endSize=24;html=1;rounded=0;edgeStyle=orthogonalEdgeStyle;" edge="1" parent="1" source="CaSeJ4gd43bD19MG-zS_-59" target="SbZ_kAbmuimCgGdz2jKS-22">
          <mxGeometry width="160" relative="1" as="geometry">
            <mxPoint x="770" y="490" as="sourcePoint" />
            <mxPoint x="930" y="490" as="targetPoint" />
            <Array as="points" />
          </mxGeometry>
        </mxCell>
        <mxCell id="CaSeJ4gd43bD19MG-zS_-69" value="" style="endArrow=block;endSize=16;endFill=0;html=1;rounded=0;strokeColor=default;edgeStyle=orthogonalEdgeStyle;" edge="1" parent="1" source="SbZ_kAbmuimCgGdz2jKS-18" target="SbZ_kAbmuimCgGdz2jKS-6">
          <mxGeometry width="160" relative="1" as="geometry">
            <mxPoint x="470" y="340" as="sourcePoint" />
            <mxPoint x="470" y="270" as="targetPoint" />
            <Array as="points">
              <mxPoint x="509" y="260" />
              <mxPoint x="310" y="260" />
            </Array>
          </mxGeometry>
        </mxCell>
        <mxCell id="CaSeJ4gd43bD19MG-zS_-81" value="" style="endArrow=block;endSize=16;endFill=0;html=1;rounded=0;strokeColor=default;edgeStyle=orthogonalEdgeStyle;" edge="1" parent="1" source="SbZ_kAbmuimCgGdz2jKS-22" target="SbZ_kAbmuimCgGdz2jKS-10">
          <mxGeometry width="160" relative="1" as="geometry">
            <mxPoint x="859" y="404" as="sourcePoint" />
            <mxPoint x="610" y="260" as="targetPoint" />
            <Array as="points">
              <mxPoint x="970" y="220" />
              <mxPoint x="1155" y="220" />
            </Array>
          </mxGeometry>
        </mxCell>
        <mxCell id="CaSeJ4gd43bD19MG-zS_-82" value="&lt;div&gt;&lt;div&gt;&lt;span style=&quot;background-color: initial;&quot;&gt;Route&lt;/span&gt;&lt;/div&gt;&lt;/div&gt;" style="swimlane;fontStyle=1;align=center;verticalAlign=top;childLayout=stackLayout;horizontal=1;startSize=26;horizontalStack=0;resizeParent=1;resizeParentMax=0;resizeLast=0;collapsible=1;marginBottom=0;whiteSpace=wrap;html=1;" vertex="1" parent="1">
          <mxGeometry x="1205" y="464" width="275" height="216" as="geometry" />
        </mxCell>
        <mxCell id="CaSeJ4gd43bD19MG-zS_-83" value="- RouteOrder: List&amp;lt;Dictonary&amp;lt;IObstacles,int&amp;gt;&amp;gt;" style="text;strokeColor=none;fillColor=none;align=left;verticalAlign=top;spacingLeft=4;spacingRight=4;overflow=hidden;rotatable=0;points=[[0,0.5],[1,0.5]];portConstraint=eastwest;whiteSpace=wrap;html=1;" vertex="1" parent="CaSeJ4gd43bD19MG-zS_-82">
          <mxGeometry y="26" width="275" height="26" as="geometry" />
        </mxCell>
        <mxCell id="CaSeJ4gd43bD19MG-zS_-115" value="- MaxHeight: int" style="text;strokeColor=none;fillColor=none;align=left;verticalAlign=top;spacingLeft=4;spacingRight=4;overflow=hidden;rotatable=0;points=[[0,0.5],[1,0.5]];portConstraint=eastwest;whiteSpace=wrap;html=1;" vertex="1" parent="CaSeJ4gd43bD19MG-zS_-82">
          <mxGeometry y="52" width="275" height="26" as="geometry" />
        </mxCell>
        <mxCell id="CaSeJ4gd43bD19MG-zS_-86" value="- DificultyLevel: int" style="text;strokeColor=none;fillColor=none;align=left;verticalAlign=top;spacingLeft=4;spacingRight=4;overflow=hidden;rotatable=0;points=[[0,0.5],[1,0.5]];portConstraint=eastwest;whiteSpace=wrap;html=1;" vertex="1" parent="CaSeJ4gd43bD19MG-zS_-82">
          <mxGeometry y="78" width="275" height="26" as="geometry" />
        </mxCell>
        <mxCell id="CaSeJ4gd43bD19MG-zS_-84" value="" style="line;strokeWidth=1;fillColor=none;align=left;verticalAlign=middle;spacingTop=-1;spacingLeft=3;spacingRight=3;rotatable=0;labelPosition=right;points=[];portConstraint=eastwest;strokeColor=inherit;" vertex="1" parent="CaSeJ4gd43bD19MG-zS_-82">
          <mxGeometry y="104" width="275" height="8" as="geometry" />
        </mxCell>
        <mxCell id="CaSeJ4gd43bD19MG-zS_-117" value="+ AddObstacle(IObstacles, order:int): void" style="text;strokeColor=none;fillColor=none;align=left;verticalAlign=top;spacingLeft=4;spacingRight=4;overflow=hidden;rotatable=0;points=[[0,0.5],[1,0.5]];portConstraint=eastwest;whiteSpace=wrap;html=1;" vertex="1" parent="CaSeJ4gd43bD19MG-zS_-82">
          <mxGeometry y="112" width="275" height="26" as="geometry" />
        </mxCell>
        <mxCell id="CaSeJ4gd43bD19MG-zS_-133" value="+ RemoveObstacleByOrder(order:int): void" style="text;strokeColor=none;fillColor=none;align=left;verticalAlign=top;spacingLeft=4;spacingRight=4;overflow=hidden;rotatable=0;points=[[0,0.5],[1,0.5]];portConstraint=eastwest;whiteSpace=wrap;html=1;" vertex="1" parent="CaSeJ4gd43bD19MG-zS_-82">
          <mxGeometry y="138" width="275" height="26" as="geometry" />
        </mxCell>
        <mxCell id="CaSeJ4gd43bD19MG-zS_-116" value="+ GetMaxHeigh(): void" style="text;strokeColor=none;fillColor=none;align=left;verticalAlign=top;spacingLeft=4;spacingRight=4;overflow=hidden;rotatable=0;points=[[0,0.5],[1,0.5]];portConstraint=eastwest;whiteSpace=wrap;html=1;" vertex="1" parent="CaSeJ4gd43bD19MG-zS_-82">
          <mxGeometry y="164" width="275" height="26" as="geometry" />
        </mxCell>
        <mxCell id="CaSeJ4gd43bD19MG-zS_-85" value="+ GetDificultyLevel(): void" style="text;strokeColor=none;fillColor=none;align=left;verticalAlign=top;spacingLeft=4;spacingRight=4;overflow=hidden;rotatable=0;points=[[0,0.5],[1,0.5]];portConstraint=eastwest;whiteSpace=wrap;html=1;" vertex="1" parent="CaSeJ4gd43bD19MG-zS_-82">
          <mxGeometry y="190" width="275" height="26" as="geometry" />
        </mxCell>
        <mxCell id="CaSeJ4gd43bD19MG-zS_-88" value="Equipment" style="swimlane;fontStyle=1;align=center;verticalAlign=top;childLayout=stackLayout;horizontal=1;startSize=26;horizontalStack=0;resizeParent=1;resizeParentMax=0;resizeLast=0;collapsible=1;marginBottom=0;whiteSpace=wrap;html=1;" vertex="1" parent="1">
          <mxGeometry x="1450" y="257" width="170" height="138" as="geometry" />
        </mxCell>
        <mxCell id="CaSeJ4gd43bD19MG-zS_-89" value="+ Type: boolean" style="text;strokeColor=none;fillColor=none;align=left;verticalAlign=top;spacingLeft=4;spacingRight=4;overflow=hidden;rotatable=0;points=[[0,0.5],[1,0.5]];portConstraint=eastwest;whiteSpace=wrap;html=1;" vertex="1" parent="CaSeJ4gd43bD19MG-zS_-88">
          <mxGeometry y="26" width="170" height="26" as="geometry" />
        </mxCell>
        <mxCell id="CaSeJ4gd43bD19MG-zS_-94" value="+ Size: int" style="text;strokeColor=none;fillColor=none;align=left;verticalAlign=top;spacingLeft=4;spacingRight=4;overflow=hidden;rotatable=0;points=[[0,0.5],[1,0.5]];portConstraint=eastwest;whiteSpace=wrap;html=1;" vertex="1" parent="CaSeJ4gd43bD19MG-zS_-88">
          <mxGeometry y="52" width="170" height="26" as="geometry" />
        </mxCell>
        <mxCell id="CaSeJ4gd43bD19MG-zS_-93" value="+ IsAvaible : bool" style="text;strokeColor=none;fillColor=none;align=left;verticalAlign=top;spacingLeft=4;spacingRight=4;overflow=hidden;rotatable=0;points=[[0,0.5],[1,0.5]];portConstraint=eastwest;whiteSpace=wrap;html=1;" vertex="1" parent="CaSeJ4gd43bD19MG-zS_-88">
          <mxGeometry y="78" width="170" height="26" as="geometry" />
        </mxCell>
        <mxCell id="CaSeJ4gd43bD19MG-zS_-90" value="" style="line;strokeWidth=1;fillColor=none;align=left;verticalAlign=middle;spacingTop=-1;spacingLeft=3;spacingRight=3;rotatable=0;labelPosition=right;points=[];portConstraint=eastwest;strokeColor=inherit;" vertex="1" parent="CaSeJ4gd43bD19MG-zS_-88">
          <mxGeometry y="104" width="170" height="8" as="geometry" />
        </mxCell>
        <mxCell id="CaSeJ4gd43bD19MG-zS_-91" value="+ CheckAvaible(): void" style="text;strokeColor=none;fillColor=none;align=left;verticalAlign=top;spacingLeft=4;spacingRight=4;overflow=hidden;rotatable=0;points=[[0,0.5],[1,0.5]];portConstraint=eastwest;whiteSpace=wrap;html=1;" vertex="1" parent="CaSeJ4gd43bD19MG-zS_-88">
          <mxGeometry y="112" width="170" height="26" as="geometry" />
        </mxCell>
        <mxCell id="CaSeJ4gd43bD19MG-zS_-99" value="Instructor" style="swimlane;fontStyle=1;align=center;verticalAlign=top;childLayout=stackLayout;horizontal=1;startSize=26;horizontalStack=0;resizeParent=1;resizeParentMax=0;resizeLast=0;collapsible=1;marginBottom=0;whiteSpace=wrap;html=1;" vertex="1" parent="1">
          <mxGeometry x="1380" y="63" width="160" height="138" as="geometry" />
        </mxCell>
        <mxCell id="CaSeJ4gd43bD19MG-zS_-100" value="+ type: string" style="text;strokeColor=none;fillColor=none;align=left;verticalAlign=top;spacingLeft=4;spacingRight=4;overflow=hidden;rotatable=0;points=[[0,0.5],[1,0.5]];portConstraint=eastwest;whiteSpace=wrap;html=1;" vertex="1" parent="CaSeJ4gd43bD19MG-zS_-99">
          <mxGeometry y="26" width="160" height="26" as="geometry" />
        </mxCell>
        <mxCell id="CaSeJ4gd43bD19MG-zS_-104" value="+ experienceYears: int" style="text;strokeColor=none;fillColor=none;align=left;verticalAlign=top;spacingLeft=4;spacingRight=4;overflow=hidden;rotatable=0;points=[[0,0.5],[1,0.5]];portConstraint=eastwest;whiteSpace=wrap;html=1;" vertex="1" parent="CaSeJ4gd43bD19MG-zS_-99">
          <mxGeometry y="52" width="160" height="26" as="geometry" />
        </mxCell>
        <mxCell id="CaSeJ4gd43bD19MG-zS_-103" value="+ name: string" style="text;strokeColor=none;fillColor=none;align=left;verticalAlign=top;spacingLeft=4;spacingRight=4;overflow=hidden;rotatable=0;points=[[0,0.5],[1,0.5]];portConstraint=eastwest;whiteSpace=wrap;html=1;" vertex="1" parent="CaSeJ4gd43bD19MG-zS_-99">
          <mxGeometry y="78" width="160" height="26" as="geometry" />
        </mxCell>
        <mxCell id="CaSeJ4gd43bD19MG-zS_-101" value="" style="line;strokeWidth=1;fillColor=none;align=left;verticalAlign=middle;spacingTop=-1;spacingLeft=3;spacingRight=3;rotatable=0;labelPosition=right;points=[];portConstraint=eastwest;strokeColor=inherit;" vertex="1" parent="CaSeJ4gd43bD19MG-zS_-99">
          <mxGeometry y="104" width="160" height="8" as="geometry" />
        </mxCell>
        <mxCell id="CaSeJ4gd43bD19MG-zS_-102" value="+ DisplayInformations()" style="text;strokeColor=none;fillColor=none;align=left;verticalAlign=top;spacingLeft=4;spacingRight=4;overflow=hidden;rotatable=0;points=[[0,0.5],[1,0.5]];portConstraint=eastwest;whiteSpace=wrap;html=1;" vertex="1" parent="CaSeJ4gd43bD19MG-zS_-99">
          <mxGeometry y="112" width="160" height="26" as="geometry" />
        </mxCell>
        <mxCell id="CaSeJ4gd43bD19MG-zS_-114" value="2...*" style="endArrow=none;html=1;endSize=12;startArrow=diamondThin;startSize=14;startFill=0;edgeStyle=orthogonalEdgeStyle;rounded=0;endFill=0;entryX=1;entryY=0.5;entryDx=0;entryDy=0;" edge="1" parent="1" source="CaSeJ4gd43bD19MG-zS_-82" target="CaSeJ4gd43bD19MG-zS_-98">
          <mxGeometry relative="1" as="geometry">
            <mxPoint x="1200" y="620" as="sourcePoint" />
            <mxPoint x="1090" y="560" as="targetPoint" />
            <Array as="points">
              <mxPoint x="1220" y="543" />
            </Array>
          </mxGeometry>
        </mxCell>
        <mxCell id="CaSeJ4gd43bD19MG-zS_-134" value="" style="endArrow=diamondThin;endFill=0;endSize=24;html=1;rounded=0;edgeStyle=orthogonalEdgeStyle;" edge="1" parent="1" source="CaSeJ4gd43bD19MG-zS_-82" target="SbZ_kAbmuimCgGdz2jKS-26">
          <mxGeometry width="160" relative="1" as="geometry">
            <mxPoint x="1240.66" y="434" as="sourcePoint" />
            <mxPoint x="1240.66" y="396" as="targetPoint" />
            <Array as="points" />
          </mxGeometry>
        </mxCell>
        <mxCell id="CaSeJ4gd43bD19MG-zS_-135" value="" style="endArrow=diamondThin;endFill=0;endSize=24;html=1;rounded=0;edgeStyle=orthogonalEdgeStyle;" edge="1" parent="1" source="CaSeJ4gd43bD19MG-zS_-88" target="SbZ_kAbmuimCgGdz2jKS-26">
          <mxGeometry width="160" relative="1" as="geometry">
            <mxPoint x="1352" y="474" as="sourcePoint" />
            <mxPoint x="1295" y="392" as="targetPoint" />
            <Array as="points" />
          </mxGeometry>
        </mxCell>
        <mxCell id="DbjGVKpHYJdUAsFHqH6q-13" value="Rewizja obiektów powinna się odbywać co pół roku. C&lt;span style=&quot;text-align: left;&quot;&gt;heckRevisionCurrent() do LastRevision dodaje pół roku oraz porównuje to z datą dzisiejszą zwracając true lub&lt;/span&gt;&lt;span style=&quot;text-align: left; background-color: initial;&quot;&gt;&amp;nbsp;false w zależności czy rewizja jest aktualna czy nie.&lt;/span&gt;" style="rounded=0;whiteSpace=wrap;html=1;fillColor=#fff2cc;strokeColor=#d6b656;" vertex="1" parent="1">
          <mxGeometry x="630" y="700" width="180" height="140" as="geometry" />
        </mxCell>
        <mxCell id="DbjGVKpHYJdUAsFHqH6q-19" value="RouteOrder posiada listę przeszkód wraz z jej kolejnością (0,1,...).&amp;nbsp;&lt;span style=&quot;text-align: left;&quot;&gt;AddObstacle() pozwala dodać przeszkodę w dowolnym miejscu trasy, przy okazji zmieniając kolejność następnych przeszkód.Tam następuje również walidacja czy dany numer się nie powtarza.&amp;nbsp;&lt;/span&gt;&lt;span style=&quot;text-align: left;&quot;&gt;RemoveObstacleByOrder() pozwala usunąć przeszkodę po jej numerze w kolejności. &lt;br&gt;GetMaxHeight() szuka najwyższej przeszkody w trasie i ją zwraca. Analogicznie GetDificultyLevel&lt;/span&gt;" style="rounded=0;whiteSpace=wrap;html=1;fillColor=#fff2cc;strokeColor=#d6b656;" vertex="1" parent="1">
          <mxGeometry x="1350" y="700" width="270" height="187" as="geometry" />
        </mxCell>
        <mxCell id="DbjGVKpHYJdUAsFHqH6q-22" value="" style="endArrow=block;endSize=16;endFill=0;html=1;rounded=0;strokeColor=default;edgeStyle=orthogonalEdgeStyle;" edge="1" parent="1" source="SbZ_kAbmuimCgGdz2jKS-26" target="SbZ_kAbmuimCgGdz2jKS-10">
          <mxGeometry width="160" relative="1" as="geometry">
            <mxPoint x="980" y="280" as="sourcePoint" />
            <mxPoint x="1165" y="187" as="targetPoint" />
            <Array as="points">
              <mxPoint x="1280" y="220" />
              <mxPoint x="1155" y="220" />
            </Array>
          </mxGeometry>
        </mxCell>
        <mxCell id="DbjGVKpHYJdUAsFHqH6q-24" value="" style="endArrow=diamondThin;endFill=0;endSize=24;html=1;rounded=0;edgeStyle=orthogonalEdgeStyle;" edge="1" parent="1" source="CaSeJ4gd43bD19MG-zS_-99" target="SbZ_kAbmuimCgGdz2jKS-10">
          <mxGeometry width="160" relative="1" as="geometry">
            <mxPoint x="1460" y="336" as="sourcePoint" />
            <mxPoint x="1420" y="336" as="targetPoint" />
            <Array as="points" />
          </mxGeometry>
        </mxCell>
        <mxCell id="DbjGVKpHYJdUAsFHqH6q-21" value="" style="endArrow=block;dashed=1;endFill=0;endSize=12;html=1;rounded=0;edgeStyle=orthogonalEdgeStyle;" edge="1" parent="1">
          <mxGeometry width="160" relative="1" as="geometry">
            <mxPoint x="920" y="803" as="sourcePoint" />
            <mxPoint x="872.5" y="540" as="targetPoint" />
            <Array as="points">
              <mxPoint x="850" y="803" />
              <mxPoint x="850" y="540" />
            </Array>
          </mxGeometry>
        </mxCell>
        <mxCell id="aterxO59ibY9FlO3kTlR-3" value="Metoda InflateAll() zmienia prywatną właściwość volume wszystkich elementów z listy natomiast Inflate() zmienia volume osobnego obiektu." style="rounded=0;whiteSpace=wrap;html=1;fillColor=#fff2cc;strokeColor=#d6b656;" vertex="1" parent="1">
          <mxGeometry x="131" y="530" width="180" height="110" as="geometry" />
        </mxCell>
      </root>
    </mxGraphModel>
  </diagram>
</mxfile>
